<svg xmlns="http://www.w3.org/2000/svg" viewBox="0 0 182 182"><title>Asset 1</title><g id="Layer_2" data-name="Layer 2"><g id="Layer_1-2" data-name="Layer 1"><path d="M91,0a91,91,0,1,0,91,91A91,91,0,0,0,91,0Zm29,126.63q-7.08,8.79-19.92,8.8a26.83,26.83,0,0,1-12-2.64,20.6,20.6,0,0,1-8.6-7.77h-.9l-1.16,8.87h-15V41H80V74.15h.77a19.35,19.35,0,0,1,8.16-6.94,27.94,27.94,0,0,1,12-2.44q11.82,0,19,8.86T127,100Q127,117.82,120,126.63Z"/><path d="M94.39,80.06Q80,80.06,80,99.2v2q0,18.89,14.39,18.89,7.83,0,11.18-4.69t3.34-14.2V98.94q0-9.51-3.34-14.2T94.39,80.06Z"/></g></g></svg>